<?xml version="1.0" encoding="UTF-8"?>
<svg width="24" height="24" viewBox="0 0 24 24" fill="none" xmlns="http://www.w3.org/2000/svg">
  <path d="M22.2647 2.42778C21.98 2.19091 21.6364 2.03567 21.2705 1.97858C20.9046 1.92149 20.5299 1.96469 20.1847 2.10378L2.68473 9.60378C2.30552 9.75906 1.98539 10.0244 1.76093 10.3669C1.53647 10.7094 1.41687 11.1141 1.41687 11.5278C1.41687 11.9415 1.53647 12.3462 1.76093 12.6887C1.98539 13.0312 2.30552 13.2965 2.68473 13.4518L7.72473 15.4278L9.71073 20.4678C9.86697 20.8461 10.1337 21.1649 10.4757 21.3876C10.8177 21.6103 11.2217 21.7275 11.6347 21.7238C12.0491 21.7247 12.4537 21.6009 12.7932 21.3696C13.1327 21.1384 13.3922 20.8109 13.5347 20.4278L21.0347 2.92778C21.1738 2.58257 21.217 2.20789 21.1599 1.84197C21.1028 1.47606 20.9476 1.13246 20.7107 0.847778C20.5925 0.698525 20.4486 0.570244 20.2859 0.46899C20.1232 0.367736 19.9443 0.295273 19.7574 0.254595C19.5705 0.213917 19.3783 0.205674 19.1887 0.230245C18.9991 0.254816 18.8149 0.311872 18.6447 0.399178L18.7147 0.427778L22.2647 2.42778ZM22.2647 2.42778C22.4161 2.54284 22.5473 2.68354 22.6524 2.84358C22.7575 3.00362 22.8347 3.18075 22.8805 3.36758C22.9264 3.55441 22.9402 3.74797 22.9213 3.93938C22.9024 4.13078 22.8512 4.31673 22.7697 4.48878L15.2697 22.0088L15.2647 21.9978C15.1233 22.3792 14.8663 22.7055 14.5273 22.9358C14.1883 23.1661 13.7845 23.2893 13.3707 23.2888C12.9583 23.2925 12.5551 23.1754 12.2137 22.9532C11.8724 22.731 11.6061 22.413 11.4497 22.0358L9.46373 16.9958L4.42373 15.0178C4.04584 14.8627 3.72682 14.5982 3.50305 14.2568C3.27928 13.9154 3.15987 13.5121 3.15987 13.0998C3.15987 12.6875 3.27928 12.2842 3.50305 11.9428C3.72682 11.6014 4.04584 11.3369 4.42373 11.1818L21.9237 3.68178C22.0964 3.60124 22.2825 3.54628 22.4739 3.51922C22.6653 3.49216 22.8595 3.49337 23.0505 3.52279C23.2415 3.55221 23.4267 3.60944 23.5981 3.69211C23.7695 3.77478 23.9243 3.88174 24.0567 4.00978L22.2647 2.42778ZM9.71073 20.4678L13.5347 20.4278L9.71073 20.4678Z" fill="currentColor"/>
  <path d="M8.5 16.5L15.5 9.5" stroke="currentColor" stroke-width="1.5" stroke-linecap="round" stroke-linejoin="round"/>
</svg>
